<?xml version="1.0" standalone="no"?>
<!DOCTYPE svg PUBLIC "-//W3C//DTD SVG 20010904//EN"
 "http://www.w3.org/TR/2001/REC-SVG-20010904/DTD/svg10.dtd">
<svg version="1.0" xmlns="http://www.w3.org/2000/svg"
 width="625.000000pt" height="625.000000pt" viewBox="0 0 625.000000 625.000000"
 preserveAspectRatio="xMidYMid meet">
<metadata>
Created by potrace 1.14, written by Peter Selinger 2001-2017
</metadata>
<g transform="translate(0.000000,625.000000) scale(0.100000,-0.100000)"
fill="#000000" stroke="none">
<path d="M3950 6132 c-45 -119 -69 -158 -148 -236 -137 -137 -402 -287 -750
-425 -396 -156 -673 -215 -1097 -231 -247 -9 -307 -19 -426 -70 -328 -139
-558 -476 -559 -820 l0 -75 -109 -26 c-435 -106 -769 -475 -836 -924 -18 -119
-19 -186 -4 -292 35 -262 160 -511 340 -677 l61 -57 123 -437 c68 -240 211
-750 319 -1133 108 -383 196 -699 196 -703 0 -3 928 -5 2061 -4 l2062 3 158
565 c87 311 229 817 315 1125 l157 560 73 68 c255 237 394 600 355 932 -6 57
-20 137 -31 178 -84 319 -318 595 -622 731 l-85 39 -17 115 c-69 463 -456
1021 -1075 1551 -118 101 -370 297 -417 324 -7 4 -23 -25 -44 -81z"/>
</g>
</svg>
